<svg width="30" height="30" viewBox="0 0 30 30" fill="none" xmlns="http://www.w3.org/2000/svg">
<g clip-path="url(#clip0)">
<path d="M28.6642 5.81649H14.1096L8.39651 25.9281C8.22373 26.4642 7.73351 26.8352 7.17062 26.8547C7.15474 26.8547 7.1394 26.8551 7.12433 26.8551C6.57987 26.8551 6.0875 26.5238 5.8839 26.0155L3.54824 20.1766H1.33563C0.597742 20.1766 0 19.5785 0 18.8408C0 18.103 0.598348 17.505 1.33563 17.505H4.45279C4.99839 17.505 5.49036 17.8374 5.69322 18.3448L6.98754 21.5805L11.8637 4.07225C12.0412 3.51965 12.5553 3.14502 13.1355 3.14502H28.6643C29.4024 3.14502 30.0001 3.74317 30.0001 4.48065C30.0001 5.21814 29.4019 5.81649 28.6642 5.81649ZM29.384 23.7662L24.1185 17.8518L29.1362 12.2819C29.2249 12.1841 29.2464 12.0433 29.1939 11.9226C29.1398 11.8021 29.0205 11.7243 28.8884 11.7243H25.714C25.617 11.7243 25.5255 11.7667 25.4611 11.8401L22.093 15.7456L18.7508 11.8413C18.6876 11.7671 18.5949 11.7243 18.497 11.7243H15.1777C15.0461 11.7243 14.9268 11.8016 14.8735 11.9214C14.819 12.0415 14.8413 12.1821 14.929 12.2802L19.8906 17.8519L14.6667 23.7676C14.5794 23.8662 14.5587 24.0066 14.612 24.1259C14.6667 24.246 14.786 24.3223 14.9166 24.3223H18.2068C18.3058 24.3223 18.3997 24.2786 18.4629 24.2022L21.9495 20.0185L25.5188 24.2055C25.5828 24.2801 25.6755 24.3227 25.7733 24.3227H29.1354C29.2674 24.3227 29.3867 24.246 29.44 24.1259C29.4938 24.0052 29.4723 23.8648 29.384 23.7662Z" fill="#12C05B"/>
</g>
<defs>
<clipPath id="clip0">
<rect width="30" height="30" fill="white"/>
</clipPath>
</defs>
</svg>
